<?xml version="1.0" encoding="UTF-8" standalone="no"?>
<!-- Created with Inkscape (http://www.inkscape.org/) -->

<svg
   width="210mm"
   height="297mm"
   viewBox="0 0 210 297"
   version="1.1"
   id="svg1"
   inkscape:version="1.3 (0e150ed6c4, 2023-07-21)"
   sodipodi:docname="cсобака для сайту2.svg"
   xmlns:inkscape="http://www.inkscape.org/namespaces/inkscape"
   xmlns:sodipodi="http://sodipodi.sourceforge.net/DTD/sodipodi-0.dtd"
   xmlns="http://www.w3.org/2000/svg"
   xmlns:svg="http://www.w3.org/2000/svg">
  <sodipodi:namedview
     id="namedview1"
     pagecolor="#ffffff"
     bordercolor="#000000"
     borderopacity="0.25"
     inkscape:showpageshadow="2"
     inkscape:pageopacity="0.0"
     inkscape:pagecheckerboard="0"
     inkscape:deskcolor="#d1d1d1"
     inkscape:document-units="mm"
     inkscape:zoom="0.4894542"
     inkscape:cx="77.6375"
     inkscape:cy="436.20016"
     inkscape:window-width="1920"
     inkscape:window-height="991"
     inkscape:window-x="-9"
     inkscape:window-y="-9"
     inkscape:window-maximized="1"
     inkscape:current-layer="layer1" />
  <defs
     id="defs1" />
  <g
     inkscape:label="Слой 1"
     inkscape:groupmode="layer"
     id="layer1">
    <rect
       style="fill:#ffe680;stroke-width:0.691548"
       id="rect11"
       width="210"
       height="297"
       x="4.2632564e-14"
       y="0" />
    <path
       style="fill:#a05a2c;stroke-width:0.250175"
       id="path2"
       sodipodi:type="arc"
       sodipodi:cx="86.05574"
       sodipodi:cy="-106.56521"
       sodipodi:rx="7.6887045"
       sodipodi:ry="23.251209"
       sodipodi:start="0"
       sodipodi:end="3.1378924"
       sodipodi:arc-type="slice"
       d="m 93.744445,-106.56521 a 7.6887045,23.251209 0 0 1 -7.67448,23.251171 7.6887045,23.251209 0 0 1 -7.702876,-23.165131 l 7.688651,-0.086 z"
       transform="scale(1,-1)" />
    <path
       style="fill:#a05a2c;stroke-width:0.25052"
       id="path3"
       sodipodi:type="arc"
       sodipodi:cx="109.094"
       sodipodi:cy="-106.56521"
       sodipodi:rx="7.709939"
       sodipodi:ry="23.251209"
       sodipodi:start="0"
       sodipodi:end="3.1378924"
       sodipodi:arc-type="slice"
       d="m 116.80394,-106.56521 a 7.709939,23.251209 0 0 1 -7.69567,23.251171 7.709939,23.251209 0 0 1 -7.72415,-23.165131 l 7.70988,-0.086 z"
       transform="scale(1,-1)" />
    <ellipse
       style="fill:#d38d5f;stroke-width:0.193977"
       id="ellipse10"
       ry="21.987619"
       rx="21.420015"
       cy="123.99806"
       cx="85.066032"
       transform="matrix(0.99372633,-0.11183912,0.10570939,0.99439707,0,0)" />
    <ellipse
       style="fill:#c8b7b7;stroke-width:0.264583"
       id="path4"
       cx="88.125725"
       cy="110.92783"
       rx="4.5817089"
       ry="2.8617625" />
    <ellipse
       style="fill:#c8b7b7;stroke-width:0.264583"
       id="ellipse4"
       cx="105.96447"
       cy="110.92783"
       rx="4.5817089"
       ry="2.8617625" />
    <ellipse
       style="fill:#280b0b;stroke-width:0.264583"
       id="path5"
       cx="88.125725"
       cy="110.92783"
       rx="1.4189913"
       ry="1.8244174" />
    <ellipse
       style="fill:#280b0b;stroke-width:0.264583"
       id="ellipse5"
       cx="105.96447"
       cy="110.92783"
       rx="1.4189913"
       ry="1.8244174" />
    <ellipse
       style="fill:#483737;stroke-width:0.313059"
       id="path6"
       cx="98.180679"
       cy="118.31686"
       rx="3.3109796"
       ry="2.5001276" />
    <ellipse
       style="fill:#280b0b;stroke-width:0.264583"
       id="path7"
       cx="96.694122"
       cy="118.31686"
       rx="0.9459942"
       ry="0.87842321" />
    <ellipse
       style="fill:#280b0b;stroke-width:0.264583"
       id="ellipse7"
       cx="99.802383"
       cy="118.31686"
       rx="0.9459942"
       ry="0.87842321" />
    <path
       style="fill:#ffaaaa;stroke-width:0.264583"
       id="path8"
       sodipodi:type="arc"
       sodipodi:cx="97.640114"
       sodipodi:cy="125.00636"
       sodipodi:rx="4.7975421"
       sodipodi:ry="4.8651133"
       sodipodi:start="0"
       sodipodi:end="3.1791411"
       sodipodi:arc-type="slice"
       d="m 102.43766,125.00636 a 4.7975421,4.8651133 0 0 1 -2.450964,4.24343 4.7975421,4.8651133 0 0 1 -4.848595,-0.0923 4.7975421,4.8651133 0 0 1 -2.292148,-4.33374 l 4.794161,0.18263 z" />
  </g>
</svg>
